<svg xmlns="http://www.w3.org/2000/svg" version="1.1" width="600px" height="600px" viewBox="0 0 200 200" style="overflow:hidden!important;"><g id="svga-group-wrapper"><g id="svga-group-backs-single"></g><g id="svga-group-humanwrap-move" transform="matrix(1,0,0,1,0,0)"><g id="svga-group-humanwrap"><g id="svga-group-hair-back-move" transform="matrix(1,0,0,1,0,0)"><g id="svga-group-hair-back"></g></g><g id="svga-group-humanbody-back"><path id="SvgjsPath12660" d="m170 180.3-27.3-6.9-18-9.9-1.5-28.2H76.8l-1.5 28.2-18 9.9-27.3 6.9-9.1 19.7-3 20h164.2l-3-20z" fill="#f0c7b1" stroke-width="none" opacity="1"></path><path id="SvgjsPath12661" d="m76.8 135.3-1.5 28.2-18 9.9-27.3 6.9-9.1 19.7-3 20h14.6v-20l2.7-17.7 23.8-6.4 24.7-8.3 3.5-32.3z" fill="#d19271" stroke-width="none" opacity="1"></path></g><g id="svga-group-chinshadow-single"><path id="SvgjsPath12656" d="m121.7 151.9 2.2-2.6-.7-14H76.8l-1 18.5 11.2 6.9h20.4z" fill="#c27b55" stroke-width="none" opacity="1"></path></g><g id="svga-group-humanbody-front"><path id="SvgjsPath12662" d="m92.8 168.3 2 7.9 6.9 4.6s-8.5-3-8.7-3.6c-.2-.6-.2-8.9-.2-8.9z" fill="#d19271" stroke-width="none" opacity="1"></path></g><g id="svga-group-clothes-single"><path id="SvgjsPath12545" d="m182.6 199.8-8.6-19.4-2.7-.8-22.8-6.6-15.1-6.2.2-3.4-2.4-4.9.2-3.4-2.7-7-4.9-1.7-6 5.9-15 2.9h-5.6l-15-2.9-6-5.9-4.9 1.7-2.7 7 .2 3.4-2.4 4.9.3 3.4-15.2 6.2-22.8 6.6-2.7.8-8.6 19.4-2.1 20.2h169.4z" fill="#386e77" stroke-width="none" opacity="1"></path><path id="SvgjsPath12546" d="m106 171.1 16-2.7 8.5-5.8-8.2 7.1-16.3 1.4zm57.4 39.7 4.4-18.3 5.4-10.9-6.4 10-4.7 18.4.1 10.1h1.8l-.6-9.3zm-33-38.1-10.2 7.3s-14.5 2.2-15.3 2.2-14.5-.9-14.5-.9l-.9-4.2.9-5.6h11.3L90.4 169l-1.3-2.4 2.7-8.9 29.4-4 6.1-6-3.6-1.2-5.9 5.8-15.1 2.9h-5.5l-15.1-2.9-5.9-5.8-4.9 1.6-2.8 7 .2 3.4-2.3 4.9.2 3.4-15.1 6.2-22.8 6.6-2.8.8-8.5 19.4-2.1 20.2h10.9l-.2-20.8 7.4-12.2 4 14.5 2.4 18-1.3-18.3-3.5-15.1 10.7-2.7 25.6-6.4 18 6 15.1 1.1 16.2-2.5 10.5-7.8 2.1-7-2.8 5.9zm-57.2-21.8 4.2-1.5-3.7 2-1.3 6.4.4 2.9-1.1-3.4 1.5-6.4zm-4.5 17.8.2-5.6 2.9-2.1-2.2 2.5-.3 5.3.4 3-1-3.1zm3.1 4 1 3.1-1.7-2.9-.1-4.9 4.2-4.4-3.5 4.8.1 4.3zm4.4-16.7 4.2-3.4-3.7 4.1-.6 3.9.3 4.2-1-4.5.8-4.3zm1.5 22.1-1.6-2.9-.1-4.4 2.6-3.5-1.9 3.6v3.9l1 3.3zm3.6-.5.8 2.5-1.5-2.2-.3-4.7 2.5-3.9-1.7 4.3.2 4zm-.3-18.2-.2 5.1.1 2.9-.9-3.5.1-4.8 3.6-5.2-2.7 5.5zm3.9 19.7-.3-4.7 2.2-4.4-1.3 4.4.3 4.8 1.1 2.5-2-2.6zm.2-14.5.1 4.4-.9-4.6 3.2-8.1-2.4 8.3zm10.9-6.8.3 7.5.2 4.2s.3-4.2.3-4.5-.8-7.2-.8-7.2zm-.3 14.3.4 5.1v4.3s.8-3.8.8-4.2-1.2-5.2-1.2-5.2zm10.8-14.9 1.4 6s.7 6.6.7 6.2.3-6.4.3-6.4l-2.4-5.8zm-.3 15.1.6 4-.2 5.3.8-5.3-1.2-4zm12.5-16.6c.3 0 1.3 5.4 1.3 5.4l.1 6.5.5-6.8-1.9-5.1zm2.2-.2 1.8 4.8-.3 5.5.9-5.7-2.4-4.6zm-1.6 16 1.1 4.1-.5 4.1 1-4.4-1.6-3.8zm9-5.8 1.4 2.2.4 2.7-.5 1.9 1-2.2-.5-3.1-1.8-1.5zm-2.9-14.4 2.3 3.7 1 4.6-.7 3.6 1.2-3.9-1.1-5-2.7-3z" fill="#265e68" stroke-width="none" opacity="1"></path></g><g id="svga-group-head" transform="matrix(1,0,0,1,0,0)"><g id="svga-group-ears-left-move" transform="matrix(1,0,0,1,0,0)"><g id="svga-group-ears-left"><path id="SvgjsPath12555" d="M63.1 91.8s-6-.7-10.6-3.7c0 0-3.5 9.4-4 14.4 0 0 6.7 13 10 18.5 0 0 5.2-.7 6.3-1.4l1.4-8.4-3.1-19.4z" fill="#f0c7b1" stroke-width="none" opacity="1"></path><path id="SvgjsPath12556" d="M53.3 90c-.2-.4-.8-1.9-.8-1.9 5.2.4 10.7 1.4 10.7 1.4l3 21.6-1.4 8.4c-1.1.7-6.3 1.4-6.3 1.4-.6-1-1.3-2.3-2.1-3.6l2.6 1 3-1.6s.7-11.2.5-11.5c-.1-.3-9-14.8-9.2-15.2z" fill="#e1ac8f" stroke-width="none" opacity="1"></path><path id="SvgjsPath12557" d="m50.3 100.9 2.8-5.5 5.2 6.8 2.2 9.5-1.4 1.9-4.3-7.6 1-4.7-2.6-4z" fill="#d19271" stroke-width="none" opacity="1"></path></g></g><g id="svga-group-ears-right-move" transform="matrix(1,0,0,1,0,0)"><g id="svga-group-ears-right"><path id="SvgjsPath12558" d="M136.9 91.8s6-.7 10.6-3.7c0 0 3.5 9.4 4 14.4 0 0-6.7 13-10 18.5 0 0-5.2-.7-6.3-1.4l-1.4-8.4 3.1-19.4z" fill="#f0c7b1" stroke-width="none" opacity="1"></path><path id="SvgjsPath12559" d="M146.7 90c.2-.4.8-1.9.8-1.9-5.2.4-10.7 1.4-10.7 1.4l-3 21.6 1.4 8.4c1.1.7 6.3 1.4 6.3 1.4.6-1 1.3-2.3 2.1-3.6l-2.6 1-3-1.6s-.7-11.2-.5-11.5c.1-.3 9-14.8 9.2-15.2z" fill="#e1ac8f" stroke-width="none" opacity="1"></path><path id="SvgjsPath12560" d="m149.7 100.9-2.8-5.5-5.2 6.8-2.2 9.5 1.4 1.9 4.3-7.6-1-4.7 2.6-4z" fill="#d19271" stroke-width="none" opacity="1"></path></g></g><g id="svga-group-faceshape-wrap"><g id="svga-group-faceshape-single"><path id="SvgjsPath12639" d="M143.4 84.8c-.2-10.2-5.3-24.8-5.3-24.8-6.9-11.6-19.7-19.5-19.7-19.5-7.2-1.5-18.4-2.3-18.4-2.3s-11.1.8-18.4 2.3c0 0-12.8 7.9-19.7 19.5 0 0-5.1 14.5-5.3 24.8l1 27.1 6.5 21.2 11.4 13.2 14.3 8.8h20.5l14.3-8.8 11.4-13.2 6.5-21.2.9-27.1z" fill="#f0c7b1" stroke-width="none" opacity="1"></path><path id="SvgjsPath12640" d="M109.5 151.6H89.3l-12.1-8.1-8.3-12.9L63 111l-1.3-28.3 4.6-21.6 16.4-17.2 17.2-3.8 18.5.4c-7.2-1.5-18.4-2.3-18.4-2.3s-11.1.8-18.4 2.3c0 0-12.8 7.9-19.7 19.5 0 0-5.1 14.5-5.3 24.8l1 27.1 6.5 21.2 11.4 13.2 14.3 8.8h20.5l14.3-8.8 11.4-13.2-12.6 11.7-13.9 6.8z" fill="#d19271" stroke-width="none" opacity="1"></path><path id="SvgjsPath12641" d="m88.8 141 6.5-2.8h9.3l7.3 2.2-6.6-4H94.7z" fill="#e1ac8f" stroke-width="none" opacity="1"></path></g></g><g id="svga-group-mouth-single-move" transform="matrix(1,0,0,1,0,0)"><g id="svga-group-mouth-single"><path id="SvgjsPath12730" d="m111.71 128.99-5.84-1.83-3.28-.34h-5.18l-3.28.34-5.68 1.83-2.35 1 1.57 2.22 7.2 3.17h10.26l7.2-3.17 1.57-2.22z" fill="#da7c87" stroke-width="none" opacity="1" transform="translate(0 2)"></path><path id="SvgjsPath12731" d="m83.15 129.56 6.2 1.7h19.9l7.6-2.1-8.3 1.1h-19.3z" fill="#cb5f6c" stroke-width="none" opacity="1" transform="translate(0 2)"></path></g></g><g id="svga-group-eyes-left-move" transform="matrix(1,0,0,1,0,0)"><g id="svga-group-eyes-left" transform="matrix(0.8999996000000001,0,0,0.8999996000000001,8.060032087411486,9.525038481471242)"><g id="svga-group-eyesback-left"><path id="SvgjsPath12595" d="M90.5 99.6s-.5-5.6-1.8-7.4c-.2-.2-14.7.2-17.9.3L72 99l1.9 1.5c0 .1 15.6-.4 16.6-.9z" fill="#ffffff" stroke-width="none" opacity="1"></path></g><g id="svga-group-eyesiriswrapper-left" transform="matrix(1,0,0,1,0,0)"><g id="svga-group-eyesiriscontrol-left" transform="matrix(1,0,0,1,0,0)"><g id="svga-group-eyesiris-left"><path id="SvgjsPath12677" d="m82.2 100.2-5.5-2-1-5.8 4.5-3.8 5.5 2.1 1 5.7z" fill="#681711" stroke-width="none" opacity="1"></path><path id="SvgjsPath12678" d="m78.2 95.4.6-3.1 3-1 2.4 2.1-.7 3.1-3 1z" fill="#000000" stroke-width="none" opacity="1"></path><path id="SvgjsPath12679" d="m78 91.7 2.2 2.1.6-.4-1.2-2.7z" fill="#ffffff" stroke-width="none" opacity="1"></path><path id="SvgjsPath12680" d="m82.1 96.4.5 1 .8-.4-.4-1z" fill="#ffffff" stroke-width="none" opacity="1"></path></g></g></g><g id="svga-group-eyesfront-left"><path id="SvgjsPath12603" d="M67.1 89.3v11.9l7.9 8.4h11.2l7.9-8.4V89.3l-7.9-8.4H75l-7.9 8.4zm3.7 3.2c3.2-.1 17.7-.5 17.9-.3 1.3 1.8 1.8 7.4 1.8 7.4-1 .5-16.6 1-16.6 1L72 99l-1.2-6.5z" fill="#f0c7b1" stroke-width="none" opacity="1"></path><path id="SvgjsPath12604" d="m89.8 95.1.3 4.3-3.1.5-.3-.5-2.3.8h2.1l.7 1.2 4.1-.1z" fill="#e1ac8f" stroke-width="none" opacity="1"></path><path id="SvgjsPath12605" d="m90.3 98.1-1.9-5.3H71.1l.2 1.6-1.4-.5-.6-1.9 21.2-.2-.9.7 1.3 7.1z" fill="#000000" stroke-width="none" opacity="1"></path></g></g></g><g id="svga-group-eyes-right-move" transform="matrix(1,0,0,1,0,0)"><g id="svga-group-eyes-right" transform="matrix(0.8999996000000001,0,0,0.8999996000000001,11.94004753111723,9.515038594059746)"><g id="svga-group-eyesback-right"><path id="SvgjsPath12596" d="M109.5 99.6s.5-5.6 1.8-7.4c.2-.2 14.6.2 17.9.3L128 99l-1.9 1.5c0 .1-15.6-.4-16.6-.9z" fill="#ffffff" stroke-width="none" opacity="1"></path></g><g id="svga-group-eyesiriswrapper-right" transform="matrix(1,0,0,1,0,0)"><g id="svga-group-eyesiriscontrol-right" transform="matrix(1,0,0,1,0,0)"><g id="svga-group-eyesiris-right"><path id="SvgjsPath12681" d="m119.8 100.2-5.5-2-1-5.8 4.5-3.8 5.5 2.1 1 5.7z" fill="#681711" stroke-width="none" opacity="1"></path><path id="SvgjsPath12682" d="m115.8 95.4.7-3.1 3-1 2.3 2.1-.6 3.1-3 1z" fill="#000000" stroke-width="none" opacity="1"></path><path id="SvgjsPath12683" d="m115.7 91.7 2.2 2.1.6-.4-1.2-2.7z" fill="#ffffff" stroke-width="none" opacity="1"></path><path id="SvgjsPath12684" d="m119.7 96.4.6 1 .8-.4-.4-1z" fill="#ffffff" stroke-width="none" opacity="1"></path></g></g></g><g id="svga-group-eyesfront-right"><path id="SvgjsPath12606" d="M125 80.8h-11.2l-7.9 8.4v11.9l7.9 8.4H125l7.9-8.4V89.3l-7.9-8.5zm3 18.2-1.9 1.5s-15.6-.5-16.6-1c0 0 .5-5.6 1.8-7.4.2-.2 14.6.2 17.9.3L128 99z" fill="#f0c7b1" stroke-width="none" opacity="1"></path><path id="SvgjsPath12609" d="m110.2 95.1-.3 4.3 3.1.5.3-.5 2.3.8h-2.1l-.7 1.2-4.1-.1z" fill="#e1ac8f" stroke-width="none" opacity="1"></path><path id="SvgjsPath12610" d="m109.7 98.1 1.9-5.3h17.3l-.2 1.6 1.4-.5.6-1.9-21.2-.2.9.7-1.3 7.1z" fill="#000000" stroke-width="none" opacity="1"></path></g></g></g><g id="svga-group-facehighlight-single"></g><g id="svga-group-eyebrows-left-move" transform="matrix(1,0,0,1,0,0)"><g id="svga-group-eyebrows-left-rotate" transform="matrix(1,1.7453292519943295e-9,-1.7453292519943295e-9,1,1.470439912054644e-7,-1.3823007805058296e-7)"><g id="svga-group-eyebrows-left"><path id="SvgjsPath12523" d="m94 85.8-.6 2.4-2.4 1.6-13.1-7.1-7.9-.2-5.6 4.1 4.8-6 8.5-1.9 10.2 3.5z" fill="#b25c1d" stroke-width="none" opacity="1"></path><path id="SvgjsPath12524" d="m90.4 83.7.8.5-.5 3.2-.3-3.7zm-6.2-2.8 1.5 3.1-2.1-3.2.6.1zm3.7 1.3.4.2c.2 1.6.5 4.3.5 4.3L87.3 82l.6.2zm-6.3-2.1.8 1.7-2.2-2.2 1.4.5zM69 82.2c.1 0 0 0 0 0zm-1.8 1c.8-.4 1.5-.8 1.8-.9-.3.2-1.6 1.3-2.9 2.2l1.1-1.3zm6.7-3.6 1.8 2-2.3-1.9.5-.1zm-4.7 1 1.7-.4 2.6.9c.1 0-2.4-.3-4.3-.5z" fill="#c16f33" stroke-width="none" opacity="1"></path></g></g></g><g id="svga-group-eyebrows-right-move" transform="matrix(1,0,0,1,0,0)"><g id="svga-group-eyebrows-right-rotate" transform="matrix(1,1.7453292519943295e-9,-1.7453292519943295e-9,1,1.470439912054644e-7,-2.10835779057561e-7)"><g id="svga-group-eyebrows-right"><path id="SvgjsPath12525" d="m106 85.8.6 2.4 2.4 1.6 13.1-7.1 7.9-.2 5.6 4.1-4.8-6-8.5-1.9-10.2 3.5z" fill="#b25c1d" stroke-width="none" opacity="1"></path><path id="SvgjsPath12526" d="m109.6 83.7-.8.5.5 3.2.3-3.7zm6.2-2.8-1.5 3.1 2.1-3.2-.6.1zm-3.7 1.3-.4.2c-.2 1.6-.5 4.3-.5 4.3l1.5-4.8-.6.3zm6.3-2.1-.8 1.7 2.2-2.2-1.4.5zm12.6 2.1c-.1 0 0 0 0 0zm1.8 1c-.8-.4-1.5-.8-1.8-.9.4.2 1.6 1.3 2.9 2.2l-1.1-1.3zm-6.7-3.6-1.8 2 2.3-1.9-.5-.1zm4.7 1-1.7-.4-2.6.9c-.1 0 2.3-.3 4.3-.5z" fill="#c16f33" stroke-width="none" opacity="1"></path></g></g></g><g id="svga-group-beardwrap"><g id="svga-group-beard-single-move" transform="matrix(1,0,0,1,0,0)"><g id="svga-group-beard-single" transform="matrix(0.8499994000000002,0,0,0.8499994000000002,15.000059427793104,20.220079621144848)"><path id="SvgjsPath12513" d="m141.4 107.5-4.1-3.5-2.7 5.4-4.4 16.8-22.3 22.5-2.1-.6.6-5.3-6.6 1.1-6.2-1.1.6 5.3-2.1.6-22.3-22.5-4.4-16.8-2.8-5.9-3.8 4.3-4.9 22.6 37 35.7h18.2l37-35.7z" fill="#b25c1d" stroke-width="none" opacity="1"></path><path id="SvgjsPath12514" d="m94.2 148.1-2 .6 3.3 11.3-1.3-11.9zm11.6 0-1.3 11.9 3.3-11.3-2-.6zm35.6-40.6-.8 25.6-8.1 6.9-1.2-.8-4.8 4.8 3.6-17.8-5.9 5.9 1.7 12.4-17.9 18.1-16 .4-8.2-10.1-2-14.7-4.2-4.2 5.6 18.1-6.3-7.7-.9-12-6.2-6.2 6 16.9-3.8-4.7-1.8 1.4-7.6-14.3-2.2 2.8-1.7-20.6-4.8 22.6L90.8 166H109l36.9-35.7-4.5-22.8zm-24.3 31.9-.2 14.3 6-20.2-5.8 5.9zm-5 5-4 18.2 7.8-22-3.8 3.8zm-28.7-4.5L92 163l-3.8-18.3-4.8-4.8z" fill="#a34b0a" stroke-width="none" opacity="1"></path></g></g></g><g id="svga-group-mustache-single-move" transform="matrix(1,0,0,1,0,0)"><g id="svga-group-mustache-single"><path id="SvgjsPath12744" d="m102.3 118.9 9.8 1.7 9.1 6.7 4.2 7.1-5.9-2.9-1.7-3.2.9 2.9-4.4-1.2-.9-1.5.2 1.3-5.5-1.2-.9-1.8.2 1.6-1.5-2.5.4 2.4-3-.6-1.6-3.1.3 2.9-.8-1.5-.2 1.7-1.1-3.1v3l-3.2.1.6-2.8-1.2 2.9-4.4 1v-1.6l-.9 1.8-6.8 1.6 1.6-3.1-2.8 3.4-3.9 1.2 1-2.9-2.3 3.2-2.3 1.2 4-7.8 10.1-6 8.9-1.1z" fill="#b25c1d" stroke-width="none" opacity="1"></path><path id="SvgjsPath12745" d="m92.2 128.2 1.9-8s-1.2 2.4-1.2 2.7-.7 5.3-.7 5.3zm-4.1 1.2 4-9.4-2.7 3.9-1.3 5.5zm-3.6-3.9-2.2 5.2 3.2-5.5 3.5-4.5c-.2.1-4.5 4.8-4.5 4.8zm-3.7 3c-.1.3-1.2 2.8-1.2 2.8l1.9-3.1 2-4s-2.7 4-2.7 4.3zm-2.3.1-1.7 3.6 3.5-6.4-1.8 2.8zm46.9 5.8-4.2-7.1-9.2-6.7-4.3-.8-1.2.4.1 2.1s-1.7-2.2-2.1-2.2c-.4-.1-3.8-.5-4-.5s-.5 2.3-.5 2.5-1.1-1.8-1.1-1.8-2-.2-3.9-.5l3.2 1.1.2 6 .5-6.1 1.8 4.8-.1-5 3.8 6.7-2.4-6.7 3.4 6.5-1.9-6.8 2 1.2 3.9 6.7-2.4-6.1 3.3 1.1 2.7 6.3-1.4-5.6 3.4 5.8-2.7-7.7 3.8 2.9 2 6-1.2-5.6 3.9 2.7 4.6 6.4z" fill="#aa5313" stroke-width="none" opacity="1"></path></g></g><g id="svga-group-nose-single-move" transform="matrix(1,0,0,1,0,0)"><g id="svga-group-nose-single"><path id="SvgjsPath12714" d="m96.12 99.91-.45 6.4-5.78 8.87 2.98 2.25 1.63-2.02 4.32 3.82h2.41l4.27-3.82 1.57 1.96 3.15-2.19-5.79-8.92-.56-6.46-3.82-1.63z" fill="#f0c7b1" stroke-width="none" opacity="1" transform="translate(0 1)"></path><path id="SvgjsPath12715" d="m104.86 106.44-1.95-15.67 1.1 14.55-.86-.22 6.58 10.06-2.34 1.73-1.28-1.51.28-1.34-5.15 4.47h-2.4l-5.15-4.47.29 1.34-1.29 1.51-2.34-1.73 6.59-10.06-.86.22 1.33-22.81-2.19 23.93-5.82 8.83 3.81 2.79 1.44-2.01 4.19 3.91h2.4l4.2-3.91 1.43 2.01 3.81-2.79z" fill="#d19271" stroke-width="none" opacity="1" transform="translate(0 1)"></path><path id="SvgjsPath12716" d="m96.15 113.17 2.37 1.46 3.1.06 2.55-1.16-.3-1.76-3.59-.6-3.94.66z" fill="#f8d5c3" stroke-width="none" opacity="1" transform="translate(0 1)"></path></g></g><g id="svga-group-hair-front"><path id="SvgjsPath12756" d="m99.5 63.6-9.3-2.3-5-1.4-5.1-1.7-7.3-1.8-6.5 8.8-3 18.8-3 9.3-4.2-5.7-.4-10.7 1.2-15.1 7.3-12.1-1.1-6.2 3.9-9.7.4-6.5 3 7.7-1.2-7.3 3.6-7.2v4.6l1.8 3.6-.4-4 4.5 5.3 6.8 2-5.8-3.9-1.6-4.4 4.6 3 4 .4-2.8-3.6 5.9 3 21.1 2.6 4.9 3.5 10.3 4.8 1.8 3.2 4.6 4.3.8 4.2 8.5 6.8 2.4 19.2-.2 13.7-5.2 6.3-2.3-9.1-2-23.6L125 55l-14.8 6.1z" fill="#b25c1d" stroke-width="none" opacity="1"></path><path id="SvgjsPath12757" d="m99.5 63.6-18.2-9L70.4 35l-1.2-7.3 3.6-7.3V25l1.8 3.6 10.5 9.5 11.4 7.7 1 14.1 2 3.7zm-26.7-7.2-8.6-6.7-1.1-6.2 3.9-9.7 5.3 15.7 14.5 10.7-14-3.8zm5.3-32.7 1.6 4.4 5.8 3.8 20.4 5.9 4.9 10.9-4.2 11.9-7.2 2.8 10.7-2.5s9.7-17.1 9.7-17.9-6.7-10-6.7-10l-28.2-4.2-4.9-2-1.9-3.1zm55.2 25.4L125 55l-10.1 4 10.5-9.2 2.4-9.2 4.6 4.2.9 4.3zm1.2 13.3 3.4-2.2 3.9-4.3-3.9 12.8-2.6 4.4-.8-10.7zm-68.2 2.8-3 18.8-6.5-22.2 6-9.7 3.5 13.1z" fill="#aa5313" stroke-width="none" opacity="1"></path><path id="SvgjsPath12758" d="m79.3 31 25.5 7.1 6.1 10.8-4.3 11.9-6.7-17.1-15.1-7.5-5.5-5.2zm35.2 26.2 11-7.3 2.4-9.2-1.8-3.2-10.3-4.8 7.2 8.7-.6 5.2-7.9 10.6z" fill="#ba6528" stroke-width="none" opacity="1"></path></g><g id="svga-group-glasses-single-move" transform="matrix(1,0,0,1,0,0)"><g id="svga-group-glasses-single"></g></g></g></g></g><rect id="svga-credit-rect" width="200" height="15" x="0" y="185" fill="#ecf0f1" opacity="0.5" style="display: none;"></rect><text id="svga-credit-text" font-family="Avenir Next, Roboto, Helvetica, Arial, sans-serif" font-size="10px" text-anchor="start" font-weight="400" size="10px" anchor="start" weight="400" fill="#333333" x="33.41924285888672" y="182.43642663955688" style="display: none;"><tspan id="SvgjsTspan12512" dy="13" x="33.41924285888672">Created on AvatarMaker.com</tspan></text></g><defs id="SvgjsDefs12459"></defs></svg>